# File created by Blade
# Date/Time:  Wed Jan 21 16:20:01 2015
# Frame Rate: 120.000 fps
#------------------------------------------------------
:FULLY-SPECIFIED
:DEGREES
733
root 11.977755 35.826831 -20.435407 -190.552233 -62.177844 -183.269935
Spine -2.566397 -43.883400 -3.066813
Head 59.882434 -56.855142 -32.772246
LeftShoulder -12.095548 -21.423881 -1.552078
LeftArm -17.374442 35.785794 -68.722545
LeftForeArm 43.460184 -0.000000 66.568786
LeftHand -1.105784 -0.000000 -27.949782
LeftHandThumb1 -26.253704 0.000000 33.147579
RightShoulder -17.717240 -10.864319 -3.343216
RightArm -28.974153 48.411778 26.833995
RightForeArm -3.300676 -0.000000 11.809090
RightHand -11.321099 -0.000000 -8.172394
RightHandThumb1 -24.326973 -0.000000 -32.862282
LeftUpLeg 26.503903 -25.096307 -17.251899
LeftLeg -12.995684 -0.000000 0.000000
LeftFoot 1.962834 3.241911 -0.871099
LeftToeBase -151.557018 -0.000000 0.000000
RightUpLeg -70.952415 36.000172 16.480310
RightLeg 116.392472 -0.000000 -0.000000
RightFoot 28.492893 -20.894131 -16.241456
RightToeBase 23.325383 -0.000000 -0.000000
734
root 11.977388 35.831211 -20.444781 -190.575678 -62.212143 -183.145636
Spine -2.587102 -43.821101 -3.052496
Head 59.820431 -56.932849 -32.690762
LeftShoulder -12.102447 -21.452876 -1.566277
LeftArm -17.335452 35.811941 -68.712908
LeftForeArm 43.474021 -0.000000 66.521456
LeftHand -0.916214 0.000000 -28.283635
LeftHandThumb1 -26.253704 0.000000 33.147579
RightShoulder -17.711050 -10.859976 -3.310029
RightArm -28.907862 48.412566 26.880235
RightForeArm -3.173666 0.000000 11.793763
RightHand -11.314199 -0.000000 -8.324064
RightHandThumb1 -24.326973 -0.000000 -32.862282
LeftUpLeg 26.404494 -25.015852 -17.105110
LeftLeg -12.993736 -0.000000 0.000000
LeftFoot 1.940500 3.184682 -0.847565
LeftToeBase -151.413520 -0.000000 0.000000
RightUpLeg -70.935003 36.008349 16.505138
RightLeg 116.338970 -0.000000 -0.000000
RightFoot 28.497329 -20.893961 -16.272382
RightToeBase 23.232840 -0.000000 -0.000000
735
root 11.978551 35.835137 -20.457244 -190.595259 -62.281944 -183.010800
Spine -2.639274 -43.801979 -3.033946
Head 59.748677 -56.967014 -32.594261
LeftShoulder -12.079108 -21.470863 -1.599987
LeftArm -17.324600 35.863741 -68.695042
LeftForeArm 43.493208 -0.000000 66.482608
LeftHand -1.040111 -0.000000 -28.250789
LeftHandThumb1 -26.253704 0.000000 33.147579
RightShoulder -17.674388 -10.811859 -3.324678
RightArm -28.971883 48.367334 26.879333
RightForeArm -3.171795 -0.000000 11.892036
RightHand -11.301578 -0.000000 -8.423247
RightHandThumb1 -24.326973 -0.000000 -32.862282
LeftUpLeg 26.292647 -24.970052 -16.944660
LeftLeg -12.982040 -0.000000 0.000000
LeftFoot 1.870963 3.090392 -0.797257
LeftToeBase -151.235761 -0.000000 0.000000
RightUpLeg -70.945259 35.998233 16.515911
RightLeg 116.282860 -0.000000 -0.000000
RightFoot 28.519019 -20.976279 -16.211695
RightToeBase 23.254176 -0.000000 -0.000000
736
root 11.979201 35.837652 -20.466485 -190.577310 -62.335089 -182.944617
Spine -2.614900 -43.781103 -3.100612
Head 59.648506 -57.055328 -32.443603
LeftShoulder -12.063338 -21.496823 -1.585434
LeftArm -17.337167 35.863441 -68.704929
LeftForeArm 43.546428 -0.000000 66.485337
LeftHand -1.066604 -0.000000 -28.253881
LeftHandThumb1 -26.253704 0.000000 33.147579
RightShoulder -17.636297 -10.720258 -3.325207
RightArm -28.996035 48.310710 26.877278
RightForeArm -3.058332 -0.000000 11.907228
RightHand -11.371536 0.000000 -8.480390
RightHandThumb1 -24.326973 -0.000000 -32.862282
LeftUpLeg 26.195815 -24.903421 -16.829756
LeftLeg -12.964704 -0.000000 0.000000
LeftFoot 1.842914 3.005418 -0.751250
LeftToeBase -151.139818 -0.000000 0.000000
RightUpLeg -70.939480 35.992384 16.500957
RightLeg 116.245187 -0.000000 -0.000000
RightFoot 28.498468 -20.965169 -16.259371
RightToeBase 23.588682 -0.000000 -0.000000
737
root 11.980006 35.840202 -20.475316 -190.531943 -62.391530 -182.913420
Spine -2.578002 -43.717934 -3.201481
Head 59.643076 -57.163362 -32.393916
LeftShoulder -11.992976 -21.477474 -1.593202
LeftArm -17.299147 35.860322 -68.683121
LeftForeArm 43.505603 0.000000 66.450372
LeftHand -1.052081 -0.000000 -28.270398
LeftHandThumb1 -26.253704 0.000000 33.147579
RightShoulder -17.672370 -10.707516 -3.269665
RightArm -28.970357 48.371707 26.858016
RightForeArm -3.233363 -0.000000 11.858562
RightHand -11.277427 -0.000000 -8.214189
RightHandThumb1 -24.326973 -0.000000 -32.862282
LeftUpLeg 26.097167 -24.823286 -16.729845
LeftLeg -12.947255 -0.000000 0.000000
LeftFoot 1.846526 2.910602 -0.740422
LeftToeBase -151.143724 -0.000000 0.000000
RightUpLeg -70.940928 35.977266 16.464441
RightLeg 116.218174 -0.000000 -0.000000
RightFoot 28.499195 -20.986287 -16.140429
RightToeBase 23.306271 -0.000000 -0.000000
738
root 11.982225 35.844731 -20.487784 -190.567656 -62.440838 -182.802654
Spine -2.522131 -43.697517 -3.273695
Head 59.587872 -57.211563 -32.291436
LeftShoulder -11.975923 -21.456473 -1.596963
LeftArm -17.247137 35.860226 -68.647655
LeftForeArm 43.480365 0.000000 66.402158
LeftHand -1.113412 -0.000000 -28.173390
LeftHandThumb1 -26.253704 0.000000 33.147579
RightShoulder -17.652828 -10.605452 -3.237838
RightArm -28.988348 48.366335 26.805920
RightForeArm -3.200194 -0.000000 11.820011
RightHand -11.259678 -0.000000 -8.138472
RightHandThumb1 -24.326973 -0.000000 -32.862282
LeftUpLeg 26.040224 -24.798428 -16.615191
LeftLeg -12.962791 -0.000000 0.000000
LeftFoot 1.868355 2.870508 -0.702740
LeftToeBase -151.129319 -0.000000 0.000000
RightUpLeg -70.911042 35.966718 16.469960
RightLeg 116.175500 -0.000000 -0.000000
RightFoot 28.444360 -20.918699 -16.190964
RightToeBase 23.330581 -0.000000 -0.000000
